{
  "accessors": [
    {
      "bufferView": 2,
      "componentType": 5126,
      "count": 4007,
      "max": [
        3.355275869369507,
        2.223795902978054e-08,
        3.2097606658935547
      ],
      "min": [
        -3.4893391132354736,
        -1.233781337738037,
        -2.661862850189209
      ],
      "type": "VEC3"
    },
    {
      "bufferView": 2,
      "byteOffset": 48084,
      "componentType": 5126,
      "count": 4007,
      "max": [
        0.9996631145477295,
        1.0,
        0.9999931454658508
      ],
      "min": [
        -0.9996631741523743,
        -0.9976381659507751,
        -0.9999931454658508
      ],
      "type": "VEC3"
    },
    {
      "bufferView": 1,
      "componentType": 5126,
      "count": 4007,
      "max": [
        1.0000009536743164,
        1.000000238418579
      ],
      "min": [
        0.0,
        0.0
      ],
      "type": "VEC2"
    },
    {
      "bufferView": 0,
      "componentType": 5125,
      "count": 6162,
      "type": "SCALAR"
    },
    {
      "bufferView": 2,
      "byteOffset": 96168,
      "componentType": 5126,
      "count": 472,
      "max": [
        3.2874977588653564,
        -0.24015474319458008,
        3.151576042175293
      ],
      "min": [
        -3.421546220779419,
        -1.174086093902588,
        -2.603747844696045
      ],
      "type": "VEC3"
    },
    {
      "bufferView": 2,
      "byteOffset": 101832,
      "componentType": 5126,
      "count": 472,
      "max": [
        0.5642186403274536,
        0.9523435235023499,
        0.6224797964096069
      ],
      "min": [
        -0.5640718936920166,
        0.7821051478385925,
        -0.6231423616409302
      ],
      "type": "VEC3"
    },
    {
      "bufferView": 1,
      "byteOffset": 32056,
      "componentType": 5126,
      "count": 472,
      "max": [
        0.6889912486076355,
        0.7484143376350403
      ],
      "min": [
        0.022917723283171654,
        0.1147279366850853
      ],
      "type": "VEC2"
    },
    {
      "bufferView": 0,
      "byteOffset": 24648,
      "componentType": 5125,
      "count": 708,
      "type": "SCALAR"
    },
    {
      "bufferView": 2,
      "byteOffset": 107496,
      "componentType": 5126,
      "count": 6551,
      "max": [
        1.3488240242004395,
        -0.015535354614257813,
        1.4592070579528809
      ],
      "min": [
        -1.4667963981628418,
        -0.21017885208129883,
        -0.9561605453491211
      ],
      "type": "VEC3"
    },
    {
      "bufferView": 2,
      "byteOffset": 186108,
      "componentType": 5126,
      "count": 6551,
      "max": [
        0.20433692634105682,
        0.9976299405097961,
        0.23615968227386475
      ],
      "min": [
        -0.20428864657878876,
        0.9716466665267944,
        -0.23643605411052704
      ],
      "type": "VEC3"
    },
    {
      "bufferView": 1,
      "byteOffset": 35832,
      "componentType": 5126,
      "count": 6551,
      "max": [
        1.0,
        1.0
      ],
      "min": [
        0.0,
        0.00012660918582696468
      ],
      "type": "VEC2"
    },
    {
      "bufferView": 0,
      "byteOffset": 27480,
      "componentType": 5125,
      "count": 8496,
      "type": "SCALAR"
    },
    {
      "bufferView": 3,
      "componentType": 5126,
      "count": 150,
      "max": [
        6.25
      ],
      "min": [
        0.0416666679084301
      ],
      "type": "SCALAR"
    },
    {
      "bufferView": 4,
      "componentType": 5126,
      "count": 150,
      "max": [
        0.5880013108253479,
        0.808815062046051,
        0.5854979157447815,
        0.8088586330413818
      ],
      "min": [
        -0.04186214879155159,
        -0.8084502220153809,
        -0.5879843831062317,
        -0.008655601181089878
      ],
      "type": "VEC4"
    },
    {
      "bufferView": 3,
      "byteOffset": 600,
      "componentType": 5126,
      "count": 150,
      "max": [
        6.25
      ],
      "min": [
        0.0416666679084301
      ],
      "type": "SCALAR"
    },
    {
      "bufferView": 4,
      "byteOffset": 2400,
      "componentType": 5126,
      "count": 150,
      "max": [
        0.5880012512207031,
        0.808815062046051,
        0.5854984521865845,
        0.8088586330413818
      ],
      "min": [
        -0.04186214506626129,
        -0.8084501028060913,
        -0.5879843235015869,
        -0.008655602112412453
      ],
      "type": "VEC4"
    }
  ],
  "animations": [
    {
      "channels": [
        {
          "sampler": 0,
          "target": {
            "node": 3,
            "path": "rotation"
          }
        }
      ],
      "name": "Action",
      "samplers": [
        {
          "input": 12,
          "interpolation": "LINEAR",
          "output": 13
        }
      ]
    },
    {
      "channels": [
        {
          "sampler": 0,
          "target": {
            "node": 3,
            "path": "rotation"
          }
        }
      ],
      "name": "Plane.003Action",
      "samplers": [
        {
          "input": 14,
          "interpolation": "LINEAR",
          "output": 15
        }
      ]
    }
  ],
  "asset": {
    "extras": {
      "author": "ravitejagravity (https://sketchfab.com/ravitejagravity)",
      "license": "CC-BY-4.0 (http://creativecommons.org/licenses/by/4.0/)",
      "source": "https://sketchfab.com/3d-models/captain-americas-shield-5635eea35d094c0db1f36314f4206690",
      "title": "Captain America's Shield"
    },
    "generator": "Sketchfab-12.68.0",
    "version": "2.0"
  },
  "bufferViews": [
    {
      "buffer": 0,
      "byteLength": 61464,
      "name": "floatBufferViews",
      "target": 34963
    },
    {
      "buffer": 0,
      "byteLength": 88240,
      "byteOffset": 61464,
      "byteStride": 8,
      "name": "floatBufferViews",
      "target": 34962
    },
    {
      "buffer": 0,
      "byteLength": 264720,
      "byteOffset": 149704,
      "byteStride": 12,
      "name": "floatBufferViews",
      "target": 34962
    },
    {
      "buffer": 0,
      "byteLength": 1200,
      "byteOffset": 414424,
      "name": "floatBufferViews"
    },
    {
      "buffer": 0,
      "byteLength": 4800,
      "byteOffset": 415624,
      "byteStride": 16,
      "name": "floatBufferViews"
    }
  ],
  "buffers": [
    {
      "byteLength": 420424,
      "uri": "scene.bin"
    }
  ],
  "materials": [
    {
      "doubleSided": true,
      "name": "Material.001",
      "pbrMetallicRoughness": {
        "roughnessFactor": 0.25
      }
    },
    {
      "doubleSided": true,
      "name": "Material.002",
      "pbrMetallicRoughness": {
        "baseColorFactor": [
          0.8,
          0.0,
          0.00534261,
          1.0
        ],
        "roughnessFactor": 0.25
      }
    },
    {
      "doubleSided": true,
      "name": "Material.003",
      "pbrMetallicRoughness": {
        "baseColorFactor": [
          0.000593996,
          0.0338024,
          0.2019,
          1.0
        ],
        "roughnessFactor": 0.25
      }
    }
  ],
  "meshes": [
    {
      "name": "Object_0",
      "primitives": [
        {
          "attributes": {
            "NORMAL": 1,
            "POSITION": 0,
            "TEXCOORD_0": 2
          },
          "indices": 3,
          "material": 0,
          "mode": 4
        }
      ]
    },
    {
      "name": "Object_1",
      "primitives": [
        {
          "attributes": {
            "NORMAL": 5,
            "POSITION": 4,
            "TEXCOORD_0": 6
          },
          "indices": 7,
          "material": 1,
          "mode": 4
        }
      ]
    },
    {
      "name": "Object_2",
      "primitives": [
        {
          "attributes": {
            "NORMAL": 9,
            "POSITION": 8,
            "TEXCOORD_0": 10
          },
          "indices": 11,
          "material": 2,
          "mode": 4
        }
      ]
    }
  ],
  "nodes": [
    {
      "children": [
        1
      ],
      "matrix": [
        1.0,
        0.0,
        0.0,
        0.0,
        0.0,
        2.220446049250313e-16,
        -1.0,
        0.0,
        0.0,
        1.0,
        2.220446049250313e-16,
        0.0,
        0.0,
        0.0,
        0.0,
        1.0
      ],
      "name": "Sketchfab_model"
    },
    {
      "children": [
        2
      ],
      "name": "root"
    },
    {
      "children": [
        3
      ],
      "matrix": [
        1.0,
        0.0,
        0.0,
        0.0,
        0.0,
        2.220446049250313e-16,
        1.0,
        0.0,
        0.0,
        -1.0,
        2.220446049250313e-16,
        0.0,
        0.0,
        0.0,
        0.0,
        1.0
      ],
      "name": "GLTF_SceneRootNode"
    },
    {
      "children": [
        4,
        5,
        6
      ],
      "name": "Plane.003_1",
      "rotation": [
        0.5875416398048401,
        -0.01692466251552105,
        -0.02329479716718197,
        0.8086816072463989
      ],
      "scale": [
        0.18393416702747345,
        0.1555526852607727,
        0.21436284482479095
      ],
      "translation": [
        0.19516709446907043,
        0.587891161441803,
        -0.564200758934021
      ]
    },
    {
      "mesh": 0,
      "name": "Object_4"
    },
    {
      "mesh": 1,
      "name": "Object_5"
    },
    {
      "mesh": 2,
      "name": "Object_6"
    }
  ],
  "scene": 0,
  "scenes": [
    {
      "name": "Sketchfab_Scene",
      "nodes": [
        0
      ]
    }
  ]
}
